# xmcd
#
# Track frame offsets:
# 150
# 16567
# 34290
# 53187
# 68227
# 83972
# 99450
# 115617
# 130867
# 145987
# 163070
# 185185
#
# Disc length: 2656 seconds
#
#
# Revision: 0
# Processed by: cddbd v1.5.1PL0 Copyright (c) Steve Scherf et al.
# Submitted via: FreeRIP 2.942 
#
DISCID=a20a5e0c
DTITLE=João Mineiro e Marciano_Chitãozinho e Xororó - Especial
DYEAR=1900
DGENRE=Sertanejo
TTITLE0=Se eu não puder te escutar
TTITLE1=Adeus solidão
TTITLE2=Distante dos olhos
TTITLE3=Tenho cíume de tudo
TTITLE4=A minha cabeça mudou
TTITLE5=Galopeira
TTITLE6=Faz um ano
TTITLE7=Bolero
TTITLE8=Terra querida
TTITLE9=Já fui amado
TTITLE10=De coração pra coração
TTITLE11=Eu preciso de um amigo
EXTD=
EXTT0=
EXTT1=
EXTT2=
EXTT3=
EXTT4=
EXTT5=
EXTT6=
EXTT7=
EXTT8=
EXTT9=
EXTT10=
EXTT11=
PLAYORDER=
